<?xml version="1.0" encoding="UTF-8" standalone="no"?>
<svg
   xmlns:dc="http://purl.org/dc/elements/1.1/"
   xmlns:cc="http://creativecommons.org/ns#"
   xmlns:rdf="http://www.w3.org/1999/02/22-rdf-syntax-ns#"
   xmlns:svg="http://www.w3.org/2000/svg"
   xmlns="http://www.w3.org/2000/svg"
   xmlns:xlink="http://www.w3.org/1999/xlink"
   xmlns:sodipodi="http://sodipodi.sourceforge.net/DTD/sodipodi-0.dtd"
   xmlns:inkscape="http://www.inkscape.org/namespaces/inkscape"
   width="210mm"
   height="297mm"
   viewBox="0 0 210 297"
   version="1.1"
   id="svg8"
   inkscape:version="1.0.2-2 (e86c870879, 2021-01-15)"
   sodipodi:docname="d-logo.svg" style="display:flex;justify-content:center;align-items:center;">
  <defs
     id="defs2">
    <linearGradient
       inkscape:collect="always"
       id="linearGradient862">
      <stop
         style="stop-color:#ff0000;stop-opacity:1;"
         offset="0"
         id="stop858" />
      <stop
         style="stop-color:#ffcc00;stop-opacity:1"
         offset="1"
         id="stop860" />
    </linearGradient>
    <linearGradient
       inkscape:collect="always"
       xlink:href="#linearGradient862"
       id="linearGradient864"
       x1="116.5"
       y1="190.36426"
       x2="379"
       y2="190.36426"
       gradientUnits="userSpaceOnUse" />
    <linearGradient
       inkscape:collect="always"
       xlink:href="#linearGradient862"
       id="linearGradient874"
       gradientUnits="userSpaceOnUse"
       x1="379"
       y1="250"
       x2="154"
       y2="250" />
  </defs>
  <sodipodi:namedview
     id="base"
     pagecolor="#ffffff"
     bordercolor="#666666"
     borderopacity="1.0"
     inkscape:pageopacity="0.0"
     inkscape:pageshadow="2"
     inkscape:zoom="0.5"
     inkscape:cx="93.711539"
     inkscape:cy="204.39793"
     inkscape:document-units="px"
     inkscape:current-layer="layer1"
     inkscape:document-rotation="0"
     showgrid="false"
     showborder="false"
     inkscape:object-paths="true"
     inkscape:snap-intersection-paths="true"
     inkscape:snap-smooth-nodes="true"
     inkscape:window-width="1366"
     inkscape:window-height="705"
     inkscape:window-x="-8"
     inkscape:window-y="-8"
     inkscape:window-maximized="1"
     inkscape:snap-bbox="true" />
  <metadata
     id="metadata5">
    <rdf:RDF>
      <cc:Work
         rdf:about="">
        <dc:format>image/svg+xml</dc:format>
        <dc:type
           rdf:resource="http://purl.org/dc/dcmitype/StillImage" />
        <dc:title></dc:title>
      </cc:Work>
    </rdf:RDF>
  </metadata>
  <g
     inkscape:label="Layer 1"
     inkscape:groupmode="layer"
     id="layer1">
    <path
       id="path855"
       style="opacity:0.993;fill:url(#linearGradient874);fill-opacity:1.0;stroke-width:1.07914"
       d="M 229 100 A 150 150 0 0 0 79 250 A 150 150 0 0 0 229 400 A 150 150 0 0 0 379 250 A 150 150 0 0 0 229 100 z M 229 175 A 75.000004 75.000004 0 0 1 304 250 A 75.000004 75.000004 0 0 1 229 325 A 75.000004 75.000004 0 0 1 154 250 A 75.000004 75.000004 0 0 1 229 175 z "
       transform="scale(0.26458333)" />
    <path
       id="path860"
       style="opacity:0.993;fill:url(#linearGradient864);fill-opacity:1;stroke-width:0.809356"
       d="M 379 -19.271484 C 337.45002 -19.271484 304 14.178515 304 55.728516 L 304 250 A 75.000001 75.000001 0 0 1 229 325 A 75.000001 75.000001 0 0 1 154 250 A 75.000001 75.000001 0 0 1 228.43164 175.00195 A 112.5 112.5 0 0 0 116.5 287.5 A 112.5 112.5 0 0 0 229 400 A 112.5 112.5 0 0 0 229.89258 399.99609 A 150 150 0 0 0 379 250 L 379 -19.271484 z "
       transform="scale(0.26458333)" />
  </g>
</svg>
