<svg xmlns="http://www.w3.org/2000/svg" xmlns:xlink="http://www.w3.org/1999/xlink" version="1.1" width="256" height="256" viewBox="0 0 256 256" xml:space="preserve">

<defs>
</defs>
<g style="stroke: none; stroke-width: 0; stroke-dasharray: none; stroke-linecap: butt; stroke-linejoin: miter; stroke-miterlimit: 10; fill: none; fill-rule: nonzero; opacity: 1;" transform="translate(80.884046692607 80.88404669260697) scale(1.04 1.04)" >
	<path d="M 63.167 54.933 c -5.391 0 -10.782 -1.03 -16.136 -3.091 c -9.751 -3.754 -19.642 -3.754 -29.396 0 c -0.614 0.238 -1.306 0.156 -1.85 -0.218 c -0.543 -0.373 -0.868 -0.989 -0.868 -1.648 V 9.025 c 0 -0.827 0.509 -1.569 1.282 -1.867 c 10.707 -4.121 21.563 -4.121 32.27 0 c 9.753 3.754 19.644 3.754 29.396 0 c 0.614 -0.237 1.308 -0.155 1.851 0.218 c 0.544 0.373 0.868 0.99 0.868 1.649 v 40.95 c 0 0.827 -0.51 1.569 -1.281 1.866 C 73.949 53.902 68.558 54.933 63.167 54.933 z" style="stroke: none; stroke-width: 1; stroke-dasharray: none; stroke-linecap: butt; stroke-linejoin: miter; stroke-miterlimit: 10; fill: rgb(255,0,0); fill-rule: nonzero; opacity: 1;" transform=" matrix(1 0 0 1 0 0) " stroke-linecap="round" />
	<path d="M 18.917 88 c 0 1.104 -0.896 2 -2 2 s -2 -0.896 -2 -2 V 2 c 0 -1.104 0.896 -2 2 -2 s 2 0.896 2 2" style="stroke: none; stroke-width: 1; stroke-dasharray: none; stroke-linecap: butt; stroke-linejoin: miter; stroke-miterlimit: 10; fill: rgb(255,0,0); fill-rule: nonzero; opacity: 1;" transform=" matrix(1 0 0 1 0 0) " stroke-linecap="round" />
	<path d="M 22.021 90 H 11.814 c -1.104 0 -2 -0.896 -2 -2 s 0.896 -2 2 -2 h 10.207 c 1.104 0 2 0.896 2 2 S 23.125 90 22.021 90 z" style="stroke: none; stroke-width: 1; stroke-dasharray: none; stroke-linecap: butt; stroke-linejoin: miter; stroke-miterlimit: 10; fill: rgb(255,0,0); fill-rule: nonzero; opacity: 1;" transform=" matrix(1 0 0 1 0 0) " stroke-linecap="round" />
</g>
</svg>