<?xml version="1.0" encoding="UTF-8" standalone="no"?>
<svg
   xmlns:dc="http://purl.org/dc/elements/1.1/"
   xmlns:cc="http://creativecommons.org/ns#"
   xmlns:rdf="http://www.w3.org/1999/02/22-rdf-syntax-ns#"
   xmlns:svg="http://www.w3.org/2000/svg"
   xmlns="http://www.w3.org/2000/svg"
   xmlns:sodipodi="http://sodipodi.sourceforge.net/DTD/sodipodi-0.dtd"
   xmlns:inkscape="http://www.inkscape.org/namespaces/inkscape"
   width="210mm"
   height="297mm"
   viewBox="0 0 793.70079 1122.5197"
   version="1.1"
   id="SVGRoot"
   sodipodi:docname="profile_icons_plain.svg"
   inkscape:version="1.0.2-2 (e86c870879, 2021-01-15)">
  <sodipodi:namedview
     pagecolor="#ffffff"
     bordercolor="#666666"
     borderopacity="1"
     objecttolerance="10"
     gridtolerance="10"
     guidetolerance="10"
     inkscape:pageopacity="0"
     inkscape:pageshadow="2"
     inkscape:window-width="1366"
     inkscape:window-height="705"
     id="namedview9"
     showgrid="false"
     inkscape:zoom="0.22167969"
     inkscape:cx="-624.89396"
     inkscape:cy="669.30953"
     inkscape:window-x="-8"
     inkscape:window-y="-8"
     inkscape:window-maximized="1"
     inkscape:current-layer="SVGRoot"
     inkscape:document-rotation="0"
     units="mm"
     inkscape:document-units="mm" />
  <defs
     id="defs10" />
  <metadata
     id="metadata13">
    <rdf:RDF>
      <cc:Work
         rdf:about="">
        <dc:format>image/svg+xml</dc:format>
        <dc:type
           rdf:resource="http://purl.org/dc/dcmitype/StillImage" />
        <dc:title></dc:title>
      </cc:Work>
    </rdf:RDF>
  </metadata>
  <path
     id="path857"
     style="fill:#008080;fill-opacity:1;stroke:#008080;stroke-width:9.40187;stroke-linecap:butt;stroke-linejoin:miter;stroke-miterlimit:4;stroke-dasharray:none;stroke-opacity:1"
     d="m 393.06721,282.49621 a 152.7639,122.14251 0 0 0 -152.7213,122.26987 152.7639,122.14251 0 0 0 47.78763,88.56944 c -72.62603,17.20678 -152.72131,53.05152 -152.72131,127.35032 0,0 -38.984976,107.57191 0,140.72891 123.23429,104.81164 399.64205,104.81164 522.8763,0 38.98505,-33.157 0,-140.72891 0,-140.72891 0,-80.61295 -85.47961,-114.36376 -157.89828,-129.21316 A 152.7639,122.14251 0 0 0 545.7885,404.76608 152.7639,122.14251 0 0 0 393.06721,282.49621 Z" />
</svg>
