<svg xmlns="http://www.w3.org/2000/svg" xmlns:xlink="http://www.w3.org/1999/xlink" version="1.1" width="256" height="256" viewBox="0 0 256 256" xml:space="preserve">

<defs>
</defs>
<g style="stroke: none; stroke-width: 0; stroke-dasharray: none; stroke-linecap: butt; stroke-linejoin: miter; stroke-miterlimit: 10; fill: none; fill-rule: nonzero; opacity: 1;" transform="translate(85.36653696498055 85.36653696498053) scale(0.94 0.94)" >
	<path d="M 74.37 59.915 c -4.756 0 -8.995 2.224 -11.754 5.68 L 30.112 49.018 c 0.356 -1.281 0.561 -2.625 0.561 -4.018 c 0 -1.393 -0.205 -2.737 -0.561 -4.018 l 32.505 -16.577 c 2.759 3.456 6.998 5.681 11.754 5.681 c 8.295 0 15.043 -6.748 15.043 -15.043 C 89.413 6.748 82.665 0 74.37 0 S 59.327 6.748 59.327 15.042 c 0 1.393 0.205 2.737 0.561 4.018 L 27.384 35.638 c -2.759 -3.456 -6.998 -5.681 -11.754 -5.681 C 7.335 29.958 0.587 36.706 0.587 45 c 0 8.295 6.748 15.043 15.042 15.043 c 4.756 0 8.995 -2.224 11.754 -5.68 L 59.888 70.94 c -0.356 1.281 -0.561 2.624 -0.561 4.017 C 59.327 83.252 66.075 90 74.37 90 s 15.043 -6.748 15.043 -15.043 C 89.413 66.663 82.665 59.915 74.37 59.915 z M 74.37 6 c 4.986 0 9.043 4.057 9.043 9.042 c 0 4.986 -4.057 9.043 -9.043 9.043 s -9.043 -4.057 -9.043 -9.043 C 65.327 10.057 69.384 6 74.37 6 z M 15.63 54.043 c -4.986 0 -9.042 -4.057 -9.042 -9.043 c 0 -4.986 4.057 -9.042 9.042 -9.042 c 4.986 0 9.043 4.057 9.043 9.042 C 24.673 49.986 20.616 54.043 15.63 54.043 z M 74.37 84 c -4.986 0 -9.043 -4.057 -9.043 -9.043 c 0 -4.985 4.057 -9.042 9.043 -9.042 s 9.043 4.057 9.043 9.042 C 83.413 79.943 79.356 84 74.37 84 z" style="stroke: none; stroke-width: 1; stroke-dasharray: none; stroke-linecap: butt; stroke-linejoin: miter; stroke-miterlimit: 10; fill: rgb(0,128,128); fill-rule: nonzero; opacity: 1;" transform=" matrix(1 0 0 1 0 0) " stroke-linecap="round" />
</g>
</svg>