<svg xmlns="http://www.w3.org/2000/svg" xmlns:xlink="http://www.w3.org/1999/xlink" version="1.1" width="256" height="256" viewBox="50 40 256 256" xml:space="preserve">

<defs>
</defs>
<g style="stroke: none; stroke-width: 0; stroke-dasharray: none; stroke-linecap: butt; stroke-linejoin: miter; stroke-miterlimit: 10; fill: none; fill-rule: nonzero; opacity: 1;" transform="translate(85.36653696498055 85.36653696498053) scale(2 2)" >
	<path d="M 53.33 71.109 H 14.841 V 44.865 H 53.33 V 71.109 z M 17.841 68.109 H 50.33 V 47.865 H 17.841 V 68.109 z" style="stroke: none; stroke-width: 1; stroke-dasharray: none; stroke-linecap: butt; stroke-linejoin: miter; stroke-miterlimit: 10; fill: rgb(0,128,128); fill-rule: nonzero; opacity: 1;" transform=" matrix(1 0 0 1 0 0) " stroke-linecap="round" />
	<path d="M 90 33.293 v -6.196 L 78.53 13.46 H 11.47 L 0 27.096 v 6.196 c 0 3.787 2.745 6.938 6.349 7.586 V 73.54 H 0 v 3 h 58.702 h 16.714 H 90 v -3 h -6.349 V 40.879 C 87.255 40.231 90 37.08 90 33.293 z M 72.416 73.54 H 61.702 V 47.865 h 10.714 V 73.54 z M 80.651 73.54 h -5.235 V 44.865 H 58.702 V 73.54 H 9.349 V 40.822 c 1.867 -0.407 3.485 -1.486 4.58 -2.977 c 1.405 1.913 3.664 3.163 6.214 3.163 c 2.55 0 4.809 -1.249 6.214 -3.163 c 1.405 1.913 3.664 3.163 6.214 3.163 s 4.809 -1.25 6.214 -3.163 c 1.405 1.913 3.664 3.163 6.214 3.163 c 2.551 0 4.809 -1.249 6.214 -3.163 c 1.405 1.913 3.664 3.163 6.215 3.163 s 4.809 -1.249 6.214 -3.163 c 1.405 1.913 3.664 3.163 6.215 3.163 s 4.809 -1.249 6.214 -3.163 c 1.096 1.492 2.713 2.57 4.58 2.977 V 73.54 z M 82.286 38.007 c -2.6 0 -4.715 -2.115 -4.715 -4.714 v -5.649 h -3 v 5.649 c 0 2.599 -2.114 4.714 -4.714 4.714 s -4.715 -2.115 -4.715 -4.714 v -5.649 h -3 v 5.649 c 0 2.599 -2.114 4.714 -4.714 4.714 s -4.715 -2.115 -4.715 -4.714 v -5.649 h -3 v 5.649 c 0 2.599 -2.114 4.714 -4.714 4.714 s -4.714 -2.115 -4.714 -4.714 v -5.649 h -3 v 5.649 c 0 2.599 -2.115 4.714 -4.714 4.714 s -4.714 -2.115 -4.714 -4.714 v -5.649 h -3 v 5.649 c 0 2.599 -2.115 4.714 -4.714 4.714 c -2.6 0 -4.714 -2.115 -4.714 -4.714 v -5.649 h -3 v 5.649 c 0 2.599 -2.115 4.714 -4.714 4.714 S 3 35.892 3 33.293 V 28.19 l 9.866 -11.73 h 64.268 L 87 28.19 v 5.103 C 87 35.892 84.886 38.007 82.286 38.007 z" style="stroke: none; stroke-width: 1; stroke-dasharray: none; stroke-linecap: butt; stroke-linejoin: miter; stroke-miterlimit: 10; fill: rgb(0,128,128); fill-rule: nonzero; opacity: 1;" transform=" matrix(1 0 0 1 0 0) " stroke-linecap="round" />
</g>
</svg>