<svg xmlns="http://www.w3.org/2000/svg" xmlns:xlink="http://www.w3.org/1999/xlink" version="1.1" width="256" height="256" viewBox="0 0 256 256" xml:space="preserve">

<defs>
</defs>
<g style="stroke: none; stroke-width: 0; stroke-dasharray: none; stroke-linecap: butt; stroke-linejoin: miter; stroke-miterlimit: 10; fill: none; fill-rule: nonzero; opacity: 1;" transform="translate(80.884046692607 80.88404669260697) scale(1.04 1.04)" >
	<path d="M 88 21.078 H 33.078 c -1.104 0 -2 -0.896 -2 -2 s 0.896 -2 2 -2 H 88 c 1.104 0 2 0.896 2 2 S 89.104 21.078 88 21.078 z" style="stroke: none; stroke-width: 1; stroke-dasharray: none; stroke-linecap: butt; stroke-linejoin: miter; stroke-miterlimit: 10; fill: rgb(0,128,128); fill-rule: nonzero; opacity: 1;" transform=" matrix(1 0 0 1 0 0) " stroke-linecap="round" />
	<path d="M 74.707 38.359 H 33.078 c -1.104 0 -2 -0.896 -2 -2 s 0.896 -2 2 -2 h 41.629 c 1.104 0 2 0.896 2 2 S 75.812 38.359 74.707 38.359 z" style="stroke: none; stroke-width: 1; stroke-dasharray: none; stroke-linecap: butt; stroke-linejoin: miter; stroke-miterlimit: 10; fill: rgb(0,128,128); fill-rule: nonzero; opacity: 1;" transform=" matrix(1 0 0 1 0 0) " stroke-linecap="round" />
	<path d="M 61.413 55.641 H 33.078 c -1.104 0 -2 -0.896 -2 -2 s 0.896 -2 2 -2 h 28.335 c 1.104 0 2 0.896 2 2 S 62.518 55.641 61.413 55.641 z" style="stroke: none; stroke-width: 1; stroke-dasharray: none; stroke-linecap: butt; stroke-linejoin: miter; stroke-miterlimit: 10; fill: rgb(0,128,128); fill-rule: nonzero; opacity: 1;" transform=" matrix(1 0 0 1 0 0) " stroke-linecap="round" />
	<path d="M 48.12 72.922 H 33.078 c -1.104 0 -2 -0.896 -2 -2 s 0.896 -2 2 -2 H 48.12 c 1.104 0 2 0.896 2 2 S 49.225 72.922 48.12 72.922 z" style="stroke: none; stroke-width: 1; stroke-dasharray: none; stroke-linecap: butt; stroke-linejoin: miter; stroke-miterlimit: 10; fill: rgb(0,128,128); fill-rule: nonzero; opacity: 1;" transform=" matrix(1 0 0 1 0 0) " stroke-linecap="round" />
	<path d="M 10.835 72.922 c -1.104 0 -2 -0.896 -2 -2 V 19.078 c 0 -1.104 0.896 -2 2 -2 s 2 0.896 2 2 v 51.844 C 12.835 72.026 11.939 72.922 10.835 72.922 z" style="stroke: none; stroke-width: 1; stroke-dasharray: none; stroke-linecap: butt; stroke-linejoin: miter; stroke-miterlimit: 10; fill: rgb(0,128,128); fill-rule: nonzero; opacity: 1;" transform=" matrix(1 0 0 1 0 0) " stroke-linecap="round" />
	<path d="M 10.835 72.922 c -0.512 0 -1.024 -0.195 -1.414 -0.586 l -8.835 -8.835 c -0.781 -0.781 -0.781 -2.047 0 -2.828 c 0.78 -0.781 2.048 -0.781 2.828 0 l 7.421 7.421 l 7.421 -7.421 c 0.78 -0.781 2.048 -0.781 2.828 0 c 0.781 0.781 0.781 2.047 0 2.828 l -8.835 8.835 C 11.859 72.727 11.347 72.922 10.835 72.922 z" style="stroke: none; stroke-width: 1; stroke-dasharray: none; stroke-linecap: butt; stroke-linejoin: miter; stroke-miterlimit: 10; fill: rgb(0,128,128); fill-rule: nonzero; opacity: 1;" transform=" matrix(1 0 0 1 0 0) " stroke-linecap="round" />
</g>
</svg>